<svg id="eEPX2DHIub81" xmlns="http://www.w3.org/2000/svg" xmlns:xlink="http://www.w3.org/1999/xlink" viewBox="0 0 1556.05 348.04" shape-rendering="geometricPrecision" text-rendering="geometricPrecision" project-id="84bfef70375e416eba390e26d6ba033f" export-id="10c1c241b8ae4635898d1dc88aaa0317" cached="false"><g transform="translate(0-2.671434)" clip-rule="evenodd"><path d="M174.25,0.09c15.64-.11,31.23-.11,46.82-.06.11,39.53-.1,79.05.11,118.57c27.37-21.64,64.18-31.18,98.02-20.44c34.57,9.54,57.62,44.79,57.77,79.88.52,54.22,0,108.5.16,162.73-15.59.21-31.18.21-46.77.15-1.15-55.16,1.93-110.53-1.57-165.54-12.09-53.03-96.82-41.03-105.63,8.76-4.85,51.88-.68,104.54-2.09,156.73-15.59.11-31.18.11-46.82.05-.1-113.61-.05-227.22,0-340.83Z" clip-rule="evenodd" fill="#212224"/><path d="M43.43,43.94c15.65-7.83,31.23-15.8,46.77-23.83.11,26.59,0,53.23.05,79.88c19.51.1,39.01.1,58.51.15c0,15.07,0,30.14-.06,45.21-19.44-.05-38.89-.11-58.34.1.47,44.06-1.46,88.22.88,132.18c5.22,31.91,43.75,23.77,65.91,18.09-.05,14.81-.05,29.67,0,44.53-39.78,14.13-98.49,4.22-109.91-42.81-8.76-50.11-.78-101.67-4.54-152.35-14.23.21-28.47.26-42.65.31C0,130.33,0,115.26,0,100.2c14.49-.11,28.99-.11,43.43-.27-.05-18.66-.05-37.33,0-55.99Z" clip-rule="evenodd" fill="#212224"/><path d="M908.12,133.41c35.19-43.49,105.63-52.61,150.42-18.82c37.02,26.64,48.08,76.01,43.07,119.24-59.65.52-119.24-.37-178.84.42c2.87,22.21,11.58,45.77,31.86,57.61c34.31,23.62,89.37,9.96,101.36-32.33c15.27,0,30.55,0,45.83.26-8.45,70.29-92.13,105.43-153.45,79.99-78.1-32.12-93.12-145.73-40.25-206.37Zm16.68,59.02v0c43.59.83,87.18.62,130.77.16-4.59-25.66-23.1-49.64-50.42-52.51-36.18-7.66-70.75,17.99-80.35,52.35Z" clip-rule="evenodd" fill="#212224"/><path d="M423.48,100.14c15.28-.1,30.61-.05,45.88.26.16,7.04.26,14.13.42,21.17c24.72-20.54,57.82-26.69,88.79-19.08c0,15.75,0,31.49.06,47.24-33.48-9.18-76.6,1.2-84.26,39.78-9.18,49.69-1.93,101.05-4.33,151.36-15.54.11-31.02.11-46.56-.05c0-80.19.05-160.43,0-240.68Z" clip-rule="evenodd" fill="#212224"/><path d="M584.17,100.14c15.7-.1,31.34-.05,46.98.32-.1,80.13.21,160.27-.15,240.41-15.59.11-31.18.11-46.72.05-.16-80.29,0-160.53-.11-240.78Z" clip-rule="evenodd" fill="#212224"/><path d="M647.63,100.14c16.73-.1,33.42-.1,50.16.11c23.88,59.44,46.09,119.55,71.95,178.16c23.52-59.23,47.86-118.15,70.6-177.64c16.73-.89,33.47-.89,50.21-.37-32.54,80.25-65.44,160.33-98.44,240.42-15.28-.83-31.86,3.02-46.3-2.35-34.21-78.73-64.97-159.08-98.18-238.33Z" clip-rule="evenodd" fill="#212224"/><path d="M1136.86,100.14c14.8-.05,29.56-.05,44.37-.05.1,7.09.21,14.24.31,21.38c25.5-19.29,57.56-26.65,88.9-19.66c1.82,15.9,1.98,31.91,1.72,47.87-33.42-8.82-76.02.73-84.62,39-8.45,50.05-1.78,101.51-4.02,152.14-15.54.16-31.07.16-46.56.1-.16-80.24,0-160.53-.1-240.78Z" clip-rule="evenodd" fill="#212224"/><path d="M1298.49,100.14c14.81-.05,29.56-.05,44.37-.05.1,7.09.21,14.24.31,21.38c25.5-19.29,57.57-26.65,88.9-19.66c1.83,15.9,1.98,31.91,1.72,47.87-33.42-8.82-76.02.73-84.62,39-8.45,50.05-1.77,101.51-4.02,152.14-15.53.16-31.07.16-46.56.1-.15-80.24,0-160.53-.1-240.78Z" clip-rule="evenodd" fill="#212224"/><path id="eEPX2DHIub811" d="M1515.3,276.39c17-3.65,36.03,7.2,39.68,24.66c7.77,27.48-28.63,53.45-51.73,35.41-24.19-14.13-17.25-57.57,12.05-60.07Z" transform="translate(.00043 8.27189)" clip-rule="evenodd" fill="#1fbd74"/></g>
</svg>
